<svg xmlns="http://www.w3.org/2000/svg" width="24" height="24" viewBox="0 0 24 24" fill="#ffffff"><path d="M12 0c6.627 0 12 5.373 12 12s-5.373 12-12 12S0 18.627 0 12 5.373 0 12 0zm.294 7h-.589l-1.101.013c-1.48.024-3.709.092-4.465.285a1.836 1.836 0 0 0-1.326 1.263c-.181.644-.258 1.69-.29 2.46l-.022.815v.328l.008.426c.022.764.09 2.088.304 2.849.172.614.68 1.098 1.326 1.263.736.188 2.867.257 4.346.283L11.89 17l1.159-.008c1.453-.019 3.993-.082 4.811-.29a1.836 1.836 0 0 0 1.327-1.263c.21-.75.28-2.048.302-2.817l.01-.528-.003-.403c-.012-.67-.066-2.265-.31-3.13a1.836 1.836 0 0 0-1.326-1.263c-.661-.169-2.45-.242-3.878-.274L12.294 7zm-1.828 2.89l3.92 2.11-3.92 2.11V9.89z"/></svg>